<svg width="175" height="54" viewBox="0 0 175 54" fill="none" xmlns="http://www.w3.org/2000/svg">
<rect x="0.513184" width="174.487" height="54" rx="27" fill="#E79B56"/>
<path d="M39.3959 33V21.3636H40.805V31.75H46.2141V33H39.3959ZM48.3959 33V21.3636H55.4186V22.6136H49.805V26.5455H55.055V27.7955H49.805V31.75H55.5095V33H48.3959ZM57.322 22.6136V21.3636H66.0493V22.6136H62.3902V33H60.9811V22.6136H57.322ZM69.224 21.3636V22.3864C69.224 22.697 69.1672 23.0284 69.0536 23.3807C68.9437 23.7292 68.7809 24.0682 68.5649 24.3977C68.3528 24.7235 68.0952 25.0076 67.7922 25.25L67.0649 24.6591C67.3036 24.3182 67.51 23.964 67.6843 23.5966C67.8623 23.2254 67.9513 22.8295 67.9513 22.4091V21.3636H69.224ZM77.5408 24.2727C77.4726 23.697 77.1961 23.25 76.7112 22.9318C76.2264 22.6136 75.6317 22.4545 74.9272 22.4545C74.412 22.4545 73.9612 22.5379 73.5749 22.7045C73.1923 22.8712 72.8931 23.1004 72.6772 23.392C72.465 23.6837 72.359 24.0152 72.359 24.3864C72.359 24.697 72.4328 24.964 72.5806 25.1875C72.7321 25.4072 72.9253 25.5909 73.1601 25.7386C73.395 25.8826 73.6412 26.0019 73.8987 26.0966C74.1563 26.1875 74.3931 26.2614 74.609 26.3182L75.7908 26.6364C76.0938 26.7159 76.4309 26.8258 76.8022 26.9659C77.1772 27.1061 77.5351 27.2973 77.876 27.5398C78.2207 27.7784 78.5048 28.0852 78.7283 28.4602C78.9518 28.8352 79.0635 29.2955 79.0635 29.8409C79.0635 30.4697 78.8987 31.0379 78.5692 31.5455C78.2434 32.053 77.7662 32.4564 77.1374 32.7557C76.5124 33.0549 75.7529 33.2045 74.859 33.2045C74.0256 33.2045 73.3041 33.0701 72.6942 32.8011C72.0881 32.5322 71.6109 32.1572 71.2624 31.6761C70.9177 31.1951 70.7226 30.6364 70.6772 30H72.1317C72.1696 30.4394 72.3173 30.803 72.5749 31.0909C72.8362 31.375 73.1658 31.5871 73.5635 31.7273C73.965 31.8636 74.3969 31.9318 74.859 31.9318C75.3969 31.9318 75.8798 31.8447 76.3078 31.6705C76.7359 31.4924 77.0749 31.2462 77.3249 30.9318C77.5749 30.6136 77.6999 30.2424 77.6999 29.8182C77.6999 29.4318 77.5919 29.1174 77.376 28.875C77.1601 28.6326 76.876 28.4356 76.5237 28.2841C76.1715 28.1326 75.7908 28 75.3817 27.8864L73.9499 27.4773C73.0408 27.2159 72.3211 26.8428 71.7908 26.358C71.2605 25.8731 70.9953 25.2386 70.9953 24.4545C70.9953 23.803 71.1715 23.2348 71.5237 22.75C71.8798 22.2614 72.3571 21.8826 72.9556 21.6136C73.5578 21.3409 74.2302 21.2045 74.9726 21.2045C75.7226 21.2045 76.3893 21.339 76.9726 21.608C77.5559 21.8731 78.0181 22.2367 78.359 22.6989C78.7037 23.161 78.8855 23.6856 78.9044 24.2727H77.5408ZM85.2439 22.6136V21.3636H93.9712V22.6136H90.3121V33H88.903V22.6136H85.2439ZM95.2638 33H93.7865L98.0593 21.3636H99.5138L103.787 33H102.309L98.832 23.2045H98.7411L95.2638 33ZM95.8093 28.4545H101.764V29.7045H95.8093V28.4545ZM105.599 33V21.3636H107.008V31.75H112.417V33H105.599ZM114.599 33V21.3636H116.008V27.1364H116.144L121.372 21.3636H123.213L118.326 26.6136L123.213 33H121.508L117.463 27.5909L116.008 29.2273V33H114.599Z" fill="white"/>
</svg>
